<?xml version="1.0" standalone="no"?>
<!DOCTYPE svg PUBLIC "-//W3C//DTD SVG 20010904//EN"
 "http://www.w3.org/TR/2001/REC-SVG-20010904/DTD/svg10.dtd">
<svg version="1.0" xmlns="http://www.w3.org/2000/svg"
 width="512.000000pt" height="512.000000pt" viewBox="0 0 512.000000 512.000000"
 preserveAspectRatio="xMidYMid meet">
<metadata>
Created by potrace 1.14, written by Peter Selinger 2001-2017
</metadata>
<g transform="translate(0.000000,512.000000) scale(0.100000,-0.100000)"
fill="#000000" stroke="none">
<path d="M1019 4695 c-1 -11 -2 -33 -4 -50 -2 -16 -6 -77 -9 -135 -3 -58 -8
-127 -10 -155 -3 -27 -7 -90 -11 -140 -3 -49 -8 -121 -11 -160 -10 -152 -14
-214 -19 -300 -3 -49 -8 -112 -10 -140 -2 -27 -7 -102 -11 -166 l-6 -116 54
-2 54 -1 74 148 c137 270 293 528 399 662 117 146 225 241 344 301 56 29 206
83 257 93 174 34 214 38 457 41 l222 3 -13 -27 c-7 -14 -20 -42 -29 -61 -43
-96 -67 -150 -90 -200 -14 -30 -46 -102 -72 -160 -26 -58 -65 -143 -86 -188
-21 -46 -39 -86 -39 -87 0 -2 -18 -43 -41 -92 -23 -48 -70 -153 -106 -233 -36
-80 -76 -170 -90 -200 -26 -56 -62 -135 -103 -225 -12 -27 -40 -87 -61 -133
-22 -46 -39 -85 -39 -87 0 -2 -20 -47 -45 -99 -25 -53 -45 -98 -45 -100 0 -2
-19 -43 -42 -92 -23 -49 -42 -91 -43 -94 0 -3 -10 -25 -22 -50 -11 -25 -89
-196 -172 -380 -84 -184 -161 -355 -173 -380 -11 -25 -43 -94 -70 -155 -27
-60 -55 -123 -63 -140 -7 -16 -38 -84 -68 -150 -30 -66 -68 -149 -84 -185
-244 -529 -273 -599 -273 -660 l0 -60 1600 0 c1273 0 1600 3 1601 13 0 6 2 39
4 72 2 33 6 123 10 200 3 77 8 174 10 215 2 41 7 138 11 215 3 77 8 163 9 190
1 28 6 120 10 205 4 85 8 178 10 205 3 54 7 183 6 200 -1 6 -24 11 -53 10
l-53 0 -23 -70 c-57 -172 -89 -249 -159 -390 -209 -417 -554 -722 -966 -853
-75 -24 -137 -37 -277 -57 -67 -10 -380 -14 -385 -5 -4 6 64 161 270 615 12
28 74 165 138 305 63 140 126 280 140 310 14 30 100 222 192 425 92 204 178
393 190 420 13 28 41 91 63 140 36 81 62 140 124 275 12 25 33 72 48 105 15
33 36 80 48 105 11 25 83 185 160 355 77 171 151 335 165 365 305 671 301 661
301 735 l0 70 -1547 0 c-1541 0 -1547 0 -1548 -20z"/>
</g>
</svg>
